<mxfile host="app.diagrams.net" modified="2024-02-27T19:59:46.743Z" agent="Mozilla/5.0 (Windows NT 10.0; Win64; x64) AppleWebKit/537.36 (KHTML, like Gecko) Chrome/121.0.0.0 Safari/537.36" etag="6E2ncaY_H2CqGowP996l" version="23.1.7" type="device">
  <diagram name="Página-1" id="itFzpUldv_2iWnv_P08_">
    <mxGraphModel dx="1434" dy="790" grid="1" gridSize="10" guides="1" tooltips="1" connect="1" arrows="1" fold="1" page="1" pageScale="1" pageWidth="827" pageHeight="1169" math="0" shadow="0">
      <root>
        <mxCell id="0" />
        <mxCell id="1" parent="0" />
        <mxCell id="QNOhsljAnIpYlLadBwCi-4" value="Super João" style="shape=umlActor;verticalLabelPosition=bottom;verticalAlign=top;html=1;" vertex="1" parent="1">
          <mxGeometry x="80" y="160" width="30" height="60" as="geometry" />
        </mxCell>
        <mxCell id="QNOhsljAnIpYlLadBwCi-5" value="Voar e lançar raios lazer&lt;br&gt;pelas mãos" style="ellipse;whiteSpace=wrap;html=1;" vertex="1" parent="1">
          <mxGeometry x="220" y="10" width="140" height="70" as="geometry" />
        </mxCell>
        <mxCell id="QNOhsljAnIpYlLadBwCi-6" value="Use" style="endArrow=open;endSize=12;dashed=1;html=1;rounded=0;exitX=0.75;exitY=0.1;exitDx=0;exitDy=0;exitPerimeter=0;entryX=0;entryY=1;entryDx=0;entryDy=0;" edge="1" parent="1" source="QNOhsljAnIpYlLadBwCi-4" target="QNOhsljAnIpYlLadBwCi-5">
          <mxGeometry width="160" relative="1" as="geometry">
            <mxPoint x="180" y="235" as="sourcePoint" />
            <mxPoint x="360" y="225" as="targetPoint" />
          </mxGeometry>
        </mxCell>
        <mxCell id="QNOhsljAnIpYlLadBwCi-11" value="Mega Maria" style="shape=umlActor;verticalLabelPosition=bottom;verticalAlign=top;html=1;" vertex="1" parent="1">
          <mxGeometry x="80" y="460" width="30" height="60" as="geometry" />
        </mxCell>
        <mxCell id="QNOhsljAnIpYlLadBwCi-15" value="Use" style="endArrow=open;endSize=12;dashed=1;html=1;rounded=0;exitX=0.75;exitY=0.1;exitDx=0;exitDy=0;exitPerimeter=0;entryX=0.5;entryY=1;entryDx=0;entryDy=0;edgeStyle=orthogonalEdgeStyle;" edge="1" parent="1" source="QNOhsljAnIpYlLadBwCi-11" target="QNOhsljAnIpYlLadBwCi-16">
          <mxGeometry width="160" relative="1" as="geometry">
            <mxPoint x="115" y="374.5" as="sourcePoint" />
            <mxPoint x="360" y="374.5" as="targetPoint" />
          </mxGeometry>
        </mxCell>
        <mxCell id="QNOhsljAnIpYlLadBwCi-16" value="Deter" style="ellipse;whiteSpace=wrap;html=1;" vertex="1" parent="1">
          <mxGeometry x="490" y="330" width="140" height="70" as="geometry" />
        </mxCell>
        <mxCell id="QNOhsljAnIpYlLadBwCi-17" value="Doutor Caos" style="shape=umlActor;verticalLabelPosition=bottom;verticalAlign=top;html=1;" vertex="1" parent="1">
          <mxGeometry x="710" y="335" width="30" height="60" as="geometry" />
        </mxCell>
        <mxCell id="QNOhsljAnIpYlLadBwCi-18" value="Use" style="endArrow=open;endSize=12;dashed=1;html=1;rounded=0;exitX=0.5;exitY=0.5;exitDx=0;exitDy=0;exitPerimeter=0;entryX=1;entryY=0.5;entryDx=0;entryDy=0;" edge="1" parent="1" source="QNOhsljAnIpYlLadBwCi-17" target="QNOhsljAnIpYlLadBwCi-16">
          <mxGeometry width="160" relative="1" as="geometry">
            <mxPoint x="720" y="370" as="sourcePoint" />
            <mxPoint x="510" y="360" as="targetPoint" />
          </mxGeometry>
        </mxCell>
        <mxCell id="QNOhsljAnIpYlLadBwCi-22" value="Use" style="endArrow=open;endSize=12;dashed=1;html=1;rounded=0;entryX=0.5;entryY=0;entryDx=0;entryDy=0;edgeStyle=orthogonalEdgeStyle;" edge="1" parent="1" target="QNOhsljAnIpYlLadBwCi-16">
          <mxGeometry width="160" relative="1" as="geometry">
            <mxPoint x="110" y="220" as="sourcePoint" />
            <mxPoint x="520" y="300" as="targetPoint" />
          </mxGeometry>
        </mxCell>
        <mxCell id="QNOhsljAnIpYlLadBwCi-23" value="Criar escudor" style="ellipse;whiteSpace=wrap;html=1;" vertex="1" parent="1">
          <mxGeometry x="60" y="640" width="140" height="70" as="geometry" />
        </mxCell>
        <mxCell id="QNOhsljAnIpYlLadBwCi-24" value="Use" style="endArrow=open;endSize=12;dashed=1;html=1;rounded=0;entryX=0;entryY=0;entryDx=0;entryDy=0;exitX=0;exitY=1;exitDx=0;exitDy=0;exitPerimeter=0;" edge="1" parent="1" source="QNOhsljAnIpYlLadBwCi-11" target="QNOhsljAnIpYlLadBwCi-23">
          <mxGeometry width="160" relative="1" as="geometry">
            <mxPoint x="360" y="300" as="sourcePoint" />
            <mxPoint x="520" y="300" as="targetPoint" />
          </mxGeometry>
        </mxCell>
        <mxCell id="QNOhsljAnIpYlLadBwCi-25" value="Resgatar cidadãos" style="ellipse;whiteSpace=wrap;html=1;" vertex="1" parent="1">
          <mxGeometry x="20" y="20" width="140" height="70" as="geometry" />
        </mxCell>
        <mxCell id="QNOhsljAnIpYlLadBwCi-26" value="Use" style="endArrow=open;endSize=12;dashed=1;html=1;rounded=0;entryX=0.5;entryY=1;entryDx=0;entryDy=0;exitX=0.5;exitY=0;exitDx=0;exitDy=0;exitPerimeter=0;" edge="1" parent="1" source="QNOhsljAnIpYlLadBwCi-4" target="QNOhsljAnIpYlLadBwCi-25">
          <mxGeometry width="160" relative="1" as="geometry">
            <mxPoint x="360" y="400" as="sourcePoint" />
            <mxPoint x="520" y="400" as="targetPoint" />
          </mxGeometry>
        </mxCell>
        <mxCell id="QNOhsljAnIpYlLadBwCi-28" value="Destruir a Vila Feliz" style="ellipse;whiteSpace=wrap;html=1;" vertex="1" parent="1">
          <mxGeometry x="655" y="170" width="140" height="70" as="geometry" />
        </mxCell>
        <mxCell id="QNOhsljAnIpYlLadBwCi-29" value="Use" style="endArrow=open;endSize=12;dashed=1;html=1;rounded=0;entryX=0.5;entryY=1;entryDx=0;entryDy=0;exitX=0.5;exitY=0;exitDx=0;exitDy=0;exitPerimeter=0;" edge="1" parent="1" source="QNOhsljAnIpYlLadBwCi-17" target="QNOhsljAnIpYlLadBwCi-28">
          <mxGeometry width="160" relative="1" as="geometry">
            <mxPoint x="360" y="400" as="sourcePoint" />
            <mxPoint x="520" y="400" as="targetPoint" />
          </mxGeometry>
        </mxCell>
        <mxCell id="QNOhsljAnIpYlLadBwCi-30" value="Proteger a Vila Feliz" style="ellipse;whiteSpace=wrap;html=1;" vertex="1" parent="1">
          <mxGeometry x="25" y="325" width="140" height="70" as="geometry" />
        </mxCell>
        <mxCell id="QNOhsljAnIpYlLadBwCi-32" value="Use" style="endArrow=open;endSize=12;dashed=1;html=1;rounded=0;entryX=0.5;entryY=1;entryDx=0;entryDy=0;exitX=0.5;exitY=0;exitDx=0;exitDy=0;exitPerimeter=0;" edge="1" parent="1" source="QNOhsljAnIpYlLadBwCi-11" target="QNOhsljAnIpYlLadBwCi-30">
          <mxGeometry width="160" relative="1" as="geometry">
            <mxPoint x="360" y="400" as="sourcePoint" />
            <mxPoint x="520" y="400" as="targetPoint" />
          </mxGeometry>
        </mxCell>
        <mxCell id="QNOhsljAnIpYlLadBwCi-33" value="Atacar com rôbos" style="ellipse;whiteSpace=wrap;html=1;" vertex="1" parent="1">
          <mxGeometry x="655" y="490" width="140" height="70" as="geometry" />
        </mxCell>
        <mxCell id="QNOhsljAnIpYlLadBwCi-34" value="Use" style="endArrow=open;endSize=12;dashed=1;html=1;rounded=0;exitX=0;exitY=1;exitDx=0;exitDy=0;exitPerimeter=0;" edge="1" parent="1" source="QNOhsljAnIpYlLadBwCi-17" target="QNOhsljAnIpYlLadBwCi-33">
          <mxGeometry width="160" relative="1" as="geometry">
            <mxPoint x="360" y="400" as="sourcePoint" />
            <mxPoint x="520" y="400" as="targetPoint" />
          </mxGeometry>
        </mxCell>
        <mxCell id="QNOhsljAnIpYlLadBwCi-36" value="Deter rôbos" style="ellipse;whiteSpace=wrap;html=1;" vertex="1" parent="1">
          <mxGeometry x="230" y="120" width="140" height="70" as="geometry" />
        </mxCell>
        <mxCell id="QNOhsljAnIpYlLadBwCi-37" value="Use" style="endArrow=open;endSize=12;dashed=1;html=1;rounded=0;entryX=0;entryY=0.5;entryDx=0;entryDy=0;" edge="1" parent="1" target="QNOhsljAnIpYlLadBwCi-36">
          <mxGeometry width="160" relative="1" as="geometry">
            <mxPoint x="110" y="180" as="sourcePoint" />
            <mxPoint x="281.96000000000004" y="353.98" as="targetPoint" />
          </mxGeometry>
        </mxCell>
        <mxCell id="QNOhsljAnIpYlLadBwCi-38" value="Enfrentar o Doutor Caos" style="ellipse;whiteSpace=wrap;html=1;" vertex="1" parent="1">
          <mxGeometry x="220" y="520" width="140" height="70" as="geometry" />
        </mxCell>
        <mxCell id="QNOhsljAnIpYlLadBwCi-39" value="Use" style="endArrow=open;endSize=12;dashed=1;html=1;rounded=0;entryX=0.014;entryY=0.357;entryDx=0;entryDy=0;entryPerimeter=0;exitX=1;exitY=1;exitDx=0;exitDy=0;exitPerimeter=0;" edge="1" parent="1" source="QNOhsljAnIpYlLadBwCi-11" target="QNOhsljAnIpYlLadBwCi-38">
          <mxGeometry width="160" relative="1" as="geometry">
            <mxPoint x="360" y="400" as="sourcePoint" />
            <mxPoint x="520" y="400" as="targetPoint" />
          </mxGeometry>
        </mxCell>
      </root>
    </mxGraphModel>
  </diagram>
</mxfile>
